<?xml version="1.0" encoding="utf-8"?>
<!-- Generator: Adobe Illustrator 16.0.0, SVG Export Plug-In . SVG Version: 6.00 Build 0)  -->
<!DOCTYPE svg PUBLIC "-//W3C//DTD SVG 1.1//EN" "http://www.w3.org/Graphics/SVG/1.1/DTD/svg11.dtd">
<svg version="1.1" id="Layer_1" xmlns="http://www.w3.org/2000/svg" xmlns:xlink="http://www.w3.org/1999/xlink" x="0px" y="0px"
	 width="368.504px" height="198.425px" viewBox="0 0 368.504 198.425" enable-background="new 0 0 368.504 198.425"
	 xml:space="preserve">
<line fill="none" stroke="#414042" stroke-linecap="round" stroke-miterlimit="10" x1="23.28" y1="83.973" x2="92.222" y2="83.973"/>
<line fill="none" stroke="#414042" stroke-linecap="round" stroke-miterlimit="10" x1="274.826" y1="83.973" x2="343.768" y2="83.973"/>
<g>
	<path fill="#414042" d="M53.496,124.023c-0.931,0-1.808,0.179-2.63,0.536c-0.822,0.357-1.544,0.837-2.164,1.443
		c-0.621,0.605-1.11,1.319-1.466,2.141c-0.357,0.822-0.535,1.699-0.535,2.629v0.279c1.923-1.458,4.189-2.188,6.795-2.188v4.701
		c-0.807,0-1.552,0.132-2.234,0.396c-0.683,0.264-1.319,0.613-1.908,1.047c-0.714,0.559-1.311,1.241-1.792,2.048
		c-0.481,0.807-0.768,1.707-0.861,2.7v12.288h-4.794v-21.271c-0.031-1.583,0.264-3.079,0.885-4.491
		c0.62-1.412,1.458-2.637,2.513-3.677c1.055-1.039,2.288-1.869,3.7-2.49c1.412-0.62,2.909-0.931,4.492-0.931V124.023z"/>
</g>
<g>
	<path fill="#414042" d="M84.775,140.361c0,0.931,0.178,1.815,0.535,2.653c0.356,0.838,0.845,1.567,1.466,2.188
		c0.62,0.621,1.35,1.11,2.188,1.466c0.838,0.357,1.722,0.535,2.653,0.535v4.841c-1.583,0-3.072-0.303-4.468-0.908
		s-2.623-1.419-3.677-2.443c-1.056-1.024-1.901-2.234-2.537-3.63c-0.637-1.396-0.97-2.886-1.001-4.469v-17.966l4.841-4.887v11.031
		h6.749v4.841h-6.749v6.144V140.361z"/>
	<path fill="#414042" d="M102.974,128.771c1.583,0,3.079,0.303,4.492,0.908c1.412,0.605,2.645,1.436,3.7,2.49
		c1.055,1.055,1.893,2.289,2.514,3.7c0.62,1.413,0.931,2.925,0.931,4.538c0,1.614-0.311,3.126-0.931,4.538
		c-0.621,1.413-1.459,2.638-2.514,3.677c-1.055,1.04-2.289,1.862-3.7,2.467c-1.413,0.605-2.909,0.908-4.492,0.908
		c-1.614,0-3.126-0.303-4.538-0.908c-1.412-0.605-2.638-1.427-3.677-2.467c-1.04-1.04-1.862-2.265-2.467-3.677
		c-0.605-1.412-0.908-2.924-0.908-4.538c0-1.613,0.302-3.125,0.908-4.538c0.605-1.412,1.427-2.645,2.467-3.7
		c1.039-1.055,2.265-1.885,3.677-2.49C99.848,129.074,101.36,128.771,102.974,128.771z M102.974,147.156
		c0.931,0,1.815-0.178,2.653-0.535c0.837-0.356,1.559-0.838,2.164-1.443s1.086-1.319,1.443-2.141
		c0.356-0.822,0.535-1.699,0.535-2.63c0-0.931-0.179-1.815-0.535-2.653c-0.357-0.838-0.838-1.56-1.443-2.165
		s-1.327-1.085-2.164-1.443c-0.838-0.356-1.722-0.535-2.653-0.535c-0.931,0-1.815,0.179-2.653,0.535
		c-0.838,0.357-1.567,0.838-2.188,1.443c-0.621,0.605-1.11,1.327-1.466,2.165c-0.357,0.838-0.535,1.722-0.535,2.653
		c0,0.931,0.178,1.808,0.535,2.63c0.356,0.822,0.845,1.536,1.466,2.141c0.62,0.605,1.35,1.086,2.188,1.443
		C101.159,146.978,102.043,147.156,102.974,147.156z"/>
</g>
<g>
	<path fill="#414042" d="M124.767,134.118c1.37-1.367,2.92-2.412,4.653-3.136c1.732-0.723,3.569-1.085,5.51-1.085v2.512
		c-1.637-0.037-3.168,0.249-4.596,0.859c-1.427,0.61-2.674,1.45-3.74,2.519c-1.066,1.068-1.913,2.317-2.541,3.749
		c-0.628,1.431-0.962,2.947-0.999,4.55c0.037,1.908-0.324,3.75-1.085,5.523c-0.762,1.774-1.809,3.33-3.14,4.664
		c-1.333,1.335-2.875,2.394-4.625,3.173c-1.751,0.781-3.578,1.132-5.481,1.056v-2.512c1.599-0.038,3.112-0.36,4.539-0.968
		s2.684-1.443,3.768-2.506c1.085-1.063,1.941-2.307,2.569-3.731s0.942-2.934,0.942-4.528c0-1.936,0.361-3.778,1.084-5.525
		C122.349,136.985,123.396,135.448,124.767,134.118z"/>
	<path fill="#414042" d="M139.212,144.057c0,1.637,0.314,3.179,0.942,4.625c0.628,1.447,1.475,2.703,2.541,3.768
		c1.065,1.066,2.321,1.913,3.768,2.541c1.446,0.628,2.988,0.942,4.625,0.942v2.512c-1.941,0.077-3.788-0.275-5.539-1.056
		c-1.751-0.78-3.292-1.836-4.625-3.169c-1.333-1.332-2.389-2.874-3.169-4.625c-0.78-1.75-1.133-3.597-1.056-5.539v-25.293
		l2.512-2.512v13.588h11.876v2.512h-11.876V144.057z"/>
	<path fill="#414042" d="M181.063,158.56h-2.513v-14.274c0-1.599-0.314-3.121-0.942-4.567c-0.628-1.446-1.476-2.712-2.54-3.797
		c-1.066-1.085-2.323-1.941-3.769-2.569c-1.447-0.628-2.989-0.942-4.625-0.942c-1.637,0-3.168,0.314-4.596,0.942
		c-1.427,0.628-2.674,1.484-3.74,2.569c-1.066,1.084-1.913,2.341-2.541,3.768s-0.942,2.96-0.942,4.596
		c0,1.637,0.314,3.179,0.942,4.625c0.628,1.447,1.475,2.703,2.541,3.768c1.065,1.066,2.313,1.913,3.74,2.541
		c1.428,0.628,2.959,0.942,4.596,0.942c0.533,0,1.057-0.038,1.57-0.114c0.514-0.076,1.018-0.171,1.513-0.286
		c0.151,0.495,0.361,1.028,0.628,1.599c0.038,0.229,0.133,0.477,0.285,0.743c-0.647,0.191-1.304,0.333-1.97,0.428
		c-0.666,0.094-1.342,0.143-2.027,0.143c-1.941,0-3.788-0.38-5.538-1.142c-1.751-0.761-3.274-1.798-4.568-3.112
		c-1.294-1.313-2.322-2.835-3.083-4.567c-0.762-1.731-1.142-3.587-1.142-5.567c0-1.827,0.361-3.606,1.085-5.338
		c0.723-1.731,1.722-3.273,2.998-4.625c1.275-1.351,2.788-2.427,4.539-3.226c1.75-0.799,3.654-1.199,5.709-1.199
		c1.941,0,3.787,0.381,5.539,1.142c1.75,0.762,3.283,1.798,4.596,3.112c1.313,1.313,2.35,2.846,3.111,4.596
		c0.761,1.751,1.143,3.597,1.143,5.538V158.56z"/>
	<path fill="#414042" d="M184.088,144.286c-0.076-1.903,0.275-3.73,1.057-5.481c0.779-1.75,1.836-3.292,3.169-4.625
		c1.331-1.332,2.883-2.378,4.653-3.14c1.77-0.761,3.605-1.122,5.509-1.085v2.512c-1.637,0-3.178,0.314-4.624,0.942
		c-1.447,0.628-2.703,1.476-3.769,2.541c-1.066,1.066-1.913,2.313-2.541,3.74s-0.941,2.96-0.941,4.596v14.274h-2.513V144.286z"/>
	<path fill="#414042" d="M214.177,158.674c-1.98,0.076-3.836-0.276-5.567-1.056c-1.732-0.78-3.254-1.836-4.567-3.169
		c-1.313-1.332-2.351-2.883-3.111-4.653c-0.763-1.77-1.143-3.606-1.143-5.51c0-1.941,0.38-3.787,1.143-5.538
		c0.761-1.75,1.798-3.283,3.111-4.596c1.313-1.313,2.835-2.35,4.567-3.112c1.731-0.761,3.587-1.142,5.567-1.142
		c1.94,0,3.787,0.381,5.538,1.142c1.75,0.762,3.283,1.798,4.596,3.112c1.313,1.313,2.351,2.846,3.112,4.596
		c0.761,1.751,1.142,3.597,1.142,5.538c0,1.904-0.381,3.74-1.142,5.51c-0.762,1.77-1.799,3.321-3.112,4.653
		c-1.313,1.333-2.846,2.389-4.596,3.169C217.964,158.398,216.117,158.75,214.177,158.674z M214.177,132.41
		c-1.638,0-3.179,0.314-4.625,0.942c-1.447,0.628-2.703,1.476-3.769,2.541c-1.066,1.066-1.912,2.322-2.541,3.769
		c-0.628,1.447-0.941,2.988-0.941,4.625c0,1.637,0.313,3.179,0.941,4.625c0.629,1.447,1.475,2.703,2.541,3.768
		c1.065,1.066,2.321,1.913,3.769,2.541c1.446,0.628,2.987,0.942,4.625,0.942c1.636,0,3.168-0.314,4.596-0.942
		c1.428-0.628,2.684-1.475,3.769-2.541c1.085-1.065,1.941-2.321,2.569-3.768c0.628-1.446,0.941-2.988,0.941-4.625
		c0-1.636-0.313-3.178-0.941-4.625c-0.628-1.446-1.484-2.702-2.569-3.769c-1.085-1.065-2.341-1.913-3.769-2.541
		S215.813,132.41,214.177,132.41z"/>
	<path fill="#414042" d="M231.647,130.012h2.512v14.217c0,1.637,0.314,3.179,0.942,4.625c0.628,1.447,1.475,2.722,2.541,3.825
		c1.065,1.104,2.313,1.979,3.739,2.626c1.428,0.647,2.959,0.971,4.597,0.971h0.057h0.114c2.359,0,4.473-0.647,6.338-1.941
		l1.884-1.542l1.885,1.542c1.864,1.294,3.996,1.941,6.395,1.941h0.057h0.058c1.636,0,3.178-0.323,4.624-0.971
		c1.446-0.647,2.703-1.522,3.769-2.626c1.065-1.104,1.903-2.378,2.513-3.825c0.608-1.446,0.913-2.988,0.913-4.625v-14.217h2.513
		v14.217c0.037,1.941-0.324,3.778-1.085,5.51c-0.762,1.732-1.799,3.254-3.112,4.568c-1.313,1.313-2.836,2.351-4.567,3.111
		c-1.732,0.762-3.55,1.142-5.452,1.142h-0.172h-0.057h-0.114c-3.008,0-5.729-0.875-8.165-2.626
		c-2.397,1.751-5.101,2.626-8.107,2.626h-0.171h-0.058h-0.171c-1.904,0-3.721-0.38-5.453-1.142
		c-1.732-0.761-3.254-1.798-4.567-3.111c-1.313-1.313-2.351-2.835-3.111-4.568c-0.762-1.731-1.123-3.568-1.085-5.51V130.012z"/>
	<path fill="#414042" d="M303.074,156.333v2.284h-2.284v-2.341v-0.057c0-1.636-0.324-3.169-0.971-4.596
		c-0.647-1.427-1.522-2.674-2.626-3.74c-1.104-1.065-2.39-1.903-3.854-2.512c-1.466-0.608-3.017-0.914-4.653-0.914h-5.253V144.4
		v14.217h-2.569v-39.51l2.569-2.626v25.35h3.598c1.636,0,3.188-0.304,4.653-0.914c1.465-0.608,2.749-1.446,3.854-2.512
		c1.104-1.065,1.979-2.313,2.626-3.74s0.971-2.959,0.971-4.596h2.284v0.057v0.057c-0.038,1.904-0.419,3.711-1.142,5.424
		c-0.724,1.712-1.752,3.235-3.083,4.567c-0.99,1.028-2.17,1.904-3.54,2.626c1.941,0.685,3.673,1.79,5.195,3.312
		c1.332,1.333,2.359,2.855,3.083,4.567c0.723,1.713,1.104,3.521,1.143,5.424v0.171V156.333z"/>
	<path fill="#414042" d="M333.392,158.56h-2.513v-14.274c0-1.599-0.314-3.121-0.942-4.567c-0.628-1.446-1.476-2.712-2.54-3.797
		c-1.066-1.085-2.322-1.941-3.769-2.569c-1.447-0.628-2.988-0.942-4.625-0.942s-3.169,0.314-4.596,0.942
		c-1.428,0.628-2.675,1.484-3.74,2.569c-1.066,1.084-1.912,2.341-2.541,3.768c-0.628,1.427-0.941,2.96-0.941,4.596
		c0,1.637,0.313,3.179,0.941,4.625c0.629,1.447,1.475,2.703,2.541,3.768c1.065,1.066,2.313,1.913,3.74,2.541
		c1.427,0.628,2.959,0.942,4.596,0.942c0.533,0,1.057-0.038,1.57-0.114c0.514-0.076,1.018-0.171,1.513-0.286
		c0.152,0.495,0.361,1.028,0.628,1.599c0.038,0.229,0.134,0.477,0.286,0.743c-0.647,0.191-1.305,0.333-1.97,0.428
		c-0.667,0.094-1.342,0.143-2.027,0.143c-1.941,0-3.788-0.38-5.538-1.142c-1.751-0.761-3.274-1.798-4.567-3.112
		c-1.295-1.313-2.322-2.835-3.083-4.567c-0.763-1.731-1.143-3.587-1.143-5.567c0-1.827,0.361-3.606,1.085-5.338
		c0.723-1.731,1.722-3.273,2.998-4.625c1.274-1.351,2.787-2.427,4.539-3.226c1.75-0.799,3.653-1.199,5.709-1.199
		c1.941,0,3.787,0.381,5.538,1.142c1.751,0.762,3.283,1.798,4.597,3.112c1.313,1.313,2.35,2.846,3.111,4.596
		c0.761,1.751,1.143,3.597,1.143,5.538V158.56z"/>
</g>
<g>
	<line fill="none" stroke="#BE1E2D" stroke-miterlimit="10" x1="65.41" y1="132.292" x2="66.355" y2="128.897"/>
	<line fill="none" stroke="#BE1E2D" stroke-miterlimit="10" x1="63.999" y1="132.499" x2="64.341" y2="128.99"/>
	<line fill="none" stroke="#BE1E2D" stroke-miterlimit="10" x1="62.646" y1="132.946" x2="62.373" y2="129.432"/>
	<line fill="none" stroke="#BE1E2D" stroke-miterlimit="10" x1="61.391" y1="133.624" x2="60.511" y2="130.209"/>
	<line fill="none" stroke="#BE1E2D" stroke-miterlimit="10" x1="60.272" y1="134.507" x2="58.813" y2="131.296"/>
	<line fill="none" stroke="#BE1E2D" stroke-miterlimit="10" x1="59.324" y1="135.571" x2="57.33" y2="132.665"/>
	<line fill="none" stroke="#BE1E2D" stroke-miterlimit="10" x1="58.574" y1="136.785" x2="56.107" y2="134.268"/>
	<line fill="none" stroke="#BE1E2D" stroke-miterlimit="10" x1="58.048" y1="138.109" x2="55.181" y2="136.06"/>
	<line fill="none" stroke="#BE1E2D" stroke-miterlimit="10" x1="57.76" y1="139.504" x2="54.578" y2="137.984"/>
	<line fill="none" stroke="#BE1E2D" stroke-miterlimit="10" x1="57.717" y1="140.93" x2="54.322" y2="139.985"/>
	<line fill="none" stroke="#BE1E2D" stroke-miterlimit="10" x1="57.923" y1="142.34" x2="54.415" y2="142"/>
	<line fill="none" stroke="#BE1E2D" stroke-miterlimit="10" x1="58.371" y1="143.694" x2="54.856" y2="143.967"/>
	<line fill="none" stroke="#BE1E2D" stroke-miterlimit="10" x1="59.047" y1="144.949" x2="55.633" y2="145.829"/>
	<line fill="none" stroke="#BE1E2D" stroke-miterlimit="10" x1="59.931" y1="146.067" x2="56.721" y2="147.527"/>
	<line fill="none" stroke="#BE1E2D" stroke-miterlimit="10" x1="60.994" y1="147.016" x2="58.088" y2="149.01"/>
	<line fill="none" stroke="#BE1E2D" stroke-miterlimit="10" x1="62.208" y1="147.765" x2="59.691" y2="150.234"/>
	<line fill="none" stroke="#BE1E2D" stroke-miterlimit="10" x1="63.532" y1="148.292" x2="61.483" y2="151.159"/>
	<line fill="none" stroke="#BE1E2D" stroke-miterlimit="10" x1="64.929" y1="148.583" x2="63.408" y2="151.761"/>
	<line fill="none" stroke="#BE1E2D" stroke-miterlimit="10" x1="66.354" y1="148.624" x2="65.409" y2="152.019"/>
	<line fill="none" stroke="#BE1E2D" stroke-miterlimit="10" x1="67.765" y1="148.418" x2="67.424" y2="151.925"/>
	<line fill="none" stroke="#BE1E2D" stroke-miterlimit="10" x1="69.119" y1="147.969" x2="69.39" y2="151.484"/>
	<line fill="none" stroke="#BE1E2D" stroke-miterlimit="10" x1="70.374" y1="147.294" x2="71.251" y2="150.707"/>
	<line fill="none" stroke="#BE1E2D" stroke-miterlimit="10" x1="71.492" y1="146.41" x2="72.95" y2="149.618"/>
	<line fill="none" stroke="#BE1E2D" stroke-miterlimit="10" x1="72.439" y1="145.345" x2="74.433" y2="148.251"/>
	<line fill="none" stroke="#BE1E2D" stroke-miterlimit="10" x1="73.188" y1="144.131" x2="75.656" y2="146.649"/>
	<line fill="none" stroke="#BE1E2D" stroke-miterlimit="10" x1="73.716" y1="142.808" x2="76.583" y2="144.858"/>
	<line fill="none" stroke="#BE1E2D" stroke-miterlimit="10" x1="74.006" y1="141.411" x2="77.185" y2="142.931"/>
	<line fill="none" stroke="#BE1E2D" stroke-miterlimit="10" x1="74.047" y1="139.985" x2="77.442" y2="140.933"/>
	<line fill="none" stroke="#BE1E2D" stroke-miterlimit="10" x1="73.841" y1="138.576" x2="77.35" y2="138.917"/>
	<line fill="none" stroke="#BE1E2D" stroke-miterlimit="10" x1="73.394" y1="137.222" x2="76.908" y2="136.95"/>
	<line fill="none" stroke="#BE1E2D" stroke-miterlimit="10" x1="72.717" y1="135.967" x2="76.13" y2="135.088"/>
	<line fill="none" stroke="#BE1E2D" stroke-miterlimit="10" x1="71.833" y1="134.849" x2="75.043" y2="133.39"/>
	<line fill="none" stroke="#BE1E2D" stroke-miterlimit="10" x1="70.769" y1="133.901" x2="73.676" y2="131.906"/>
	<line fill="none" stroke="#BE1E2D" stroke-miterlimit="10" x1="69.555" y1="133.151" x2="72.072" y2="130.684"/>
	<line fill="none" stroke="#BE1E2D" stroke-miterlimit="10" x1="68.23" y1="132.624" x2="70.281" y2="129.757"/>
	<line fill="none" stroke="#BE1E2D" stroke-miterlimit="10" x1="66.836" y1="132.335" x2="68.356" y2="129.156"/>
</g>
<path fill="#BE1E2D" stroke="#414042" stroke-width="4" stroke-linecap="round" stroke-miterlimit="10" d="M88.299,77.808"/>
<g>
	
		<rect x="184.642" y="42.044" transform="matrix(0.9634 0.2679 -0.2679 0.9634 19.6812 -47.9089)" fill="#BE1E2D" width="1.507" height="12.242"/>
	
		<rect x="178.694" y="42.564" transform="matrix(0.9952 0.0974 -0.0974 0.9952 5.5944 -17.2449)" fill="#BE1E2D" width="1.509" height="12.242"/>
	
		<rect x="167.56" y="49.477" transform="matrix(0.0775 0.997 -0.997 0.0775 210.2997 -126.8215)" fill="#BE1E2D" width="12.241" height="1.507"/>
	
		<rect x="162.15" y="51.999" transform="matrix(0.2494 0.9684 -0.9684 0.2494 177.385 -123.3566)" fill="#BE1E2D" width="12.241" height="1.509"/>
	
		<rect x="157.259" y="55.423" transform="matrix(0.4139 0.9103 -0.9103 0.4139 146.8876 -115.802)" fill="#BE1E2D" width="12.241" height="1.508"/>
	
		<rect x="153.038" y="59.643" transform="matrix(0.5656 0.8247 -0.8247 0.5656 118.945 -105.0177)" fill="#BE1E2D" width="12.24" height="1.509"/>
	
		<rect x="149.613" y="64.533" transform="matrix(0.7003 0.7139 -0.7139 0.7003 93.285 -91.6053)" fill="#BE1E2D" width="12.24" height="1.51"/>
	
		<rect x="147.09" y="69.944" transform="matrix(0.8136 0.5814 -0.5814 0.8136 69.6585 -75.8984)" fill="#BE1E2D" width="12.239" height="1.509"/>
	
		<rect x="145.544" y="75.71" transform="matrix(0.9022 0.4313 -0.4313 0.9022 47.8101 -57.9345)" fill="#BE1E2D" width="12.239" height="1.509"/>
	
		<rect x="145.024" y="81.658" transform="matrix(0.9634 0.2681 -0.2681 0.9634 27.6287 -37.5054)" fill="#BE1E2D" width="12.239" height="1.508"/>
	
		<rect x="145.543" y="87.605" transform="matrix(0.9953 0.0968 -0.0968 0.9953 9.2644 -14.2645)" fill="#BE1E2D" width="12.239" height="1.51"/>
	
		<rect x="152.454" y="88.008" transform="matrix(0.0784 0.9969 -0.9969 0.0784 235.0325 -65.9893)" fill="#BE1E2D" width="1.507" height="12.239"/>
	
		<rect x="154.976" y="93.419" transform="matrix(0.2498 0.9683 -0.9683 0.2498 213.2043 -76.1216)" fill="#BE1E2D" width="1.509" height="12.239"/>
	
		<rect x="158.4" y="98.308" transform="matrix(0.4141 0.9102 -0.9102 0.4141 188.2938 -83.6832)" fill="#BE1E2D" width="1.508" height="12.242"/>
	
		<rect x="162.621" y="102.53" transform="matrix(0.5664 0.8241 -0.8241 0.5664 160.3706 -87.5316)" fill="#BE1E2D" width="1.509" height="12.241"/>
	
		<rect x="167.511" y="105.956" transform="matrix(0.7003 0.7139 -0.7139 0.7003 130.4388 -86.528)" fill="#BE1E2D" width="1.51" height="12.24"/>
	
		<rect x="172.922" y="108.48" transform="matrix(0.8136 0.5814 -0.5814 0.8136 99.0036 -79.6183)" fill="#BE1E2D" width="1.51" height="12.239"/>
	
		<rect x="178.689" y="110.026" transform="matrix(0.9022 0.4314 -0.4314 0.9022 67.6522 -66.0426)" fill="#BE1E2D" width="1.509" height="12.24"/>
	
		<rect x="184.638" y="110.546" transform="matrix(0.9635 0.2677 -0.2677 0.9635 38.0051 -45.3781)" fill="#BE1E2D" width="1.508" height="12.239"/>
	
		<rect x="190.584" y="110.025" transform="matrix(0.9952 0.0977 -0.0977 0.9952 12.2641 -18.1398)" fill="#BE1E2D" width="1.509" height="12.24"/>
	
		<rect x="190.985" y="113.847" transform="matrix(0.0772 0.997 -0.997 0.0772 296.1395 -90.7664)" fill="#BE1E2D" width="12.24" height="1.507"/>
	
		<rect x="196.397" y="111.323" transform="matrix(0.2492 0.9685 -0.9685 0.2492 260.5997 -111.978)" fill="#BE1E2D" width="12.24" height="1.509"/>
	
		<rect x="201.287" y="107.901" transform="matrix(0.4136 0.9105 -0.9105 0.4136 220.5489 -125.1206)" fill="#BE1E2D" width="12.24" height="1.508"/>
	
		<rect x="205.509" y="103.679" transform="matrix(0.5654 0.8248 -0.8248 0.5654 178.1001 -129.1666)" fill="#BE1E2D" width="12.24" height="1.509"/>
	
		<rect x="208.934" y="98.789" transform="matrix(0.7 0.7141 -0.7141 0.7 135.6011 -123.7146)" fill="#BE1E2D" width="12.239" height="1.508"/>
	
		<rect x="211.458" y="93.378" transform="matrix(0.8134 0.5817 -0.5817 0.8134 95.3668 -109.0068)" fill="#BE1E2D" width="12.239" height="1.507"/>
	
		<rect x="213.004" y="87.611" transform="matrix(0.9021 0.4315 -0.4315 0.9021 59.5866 -85.9088)" fill="#BE1E2D" width="12.239" height="1.509"/>
	
		<rect x="213.524" y="81.665" transform="matrix(0.9633 0.2684 -0.2684 0.9633 30.1847 -55.9343)" fill="#BE1E2D" width="12.24" height="1.508"/>
	
		<rect x="213.004" y="75.715" transform="matrix(0.9953 0.097 -0.097 0.9953 8.4485 -20.8893)" fill="#BE1E2D" width="12.24" height="1.51"/>
	
		<rect x="216.826" y="64.584" transform="matrix(0.0778 0.997 -0.997 0.0778 271.1495 -151.7145)" fill="#BE1E2D" width="1.507" height="12.24"/>
	
		<rect x="214.302" y="59.173" transform="matrix(0.2498 0.9683 -0.9683 0.2498 224.5495 -159.2564)" fill="#BE1E2D" width="1.509" height="12.24"/>
	
		<rect x="210.879" y="54.283" transform="matrix(0.4138 0.9104 -0.9104 0.4138 179.0587 -157.2579)" fill="#BE1E2D" width="1.508" height="12.239"/>
	
		<rect x="206.658" y="50.06" transform="matrix(0.5664 0.8241 -0.8241 0.5664 136.2225 -146.5713)" fill="#BE1E2D" width="1.509" height="12.24"/>
	
		<rect x="201.768" y="46.636" transform="matrix(0.6993 0.7148 -0.7148 0.6993 98.6112 -128.906)" fill="#BE1E2D" width="1.508" height="12.239"/>
	
		<rect x="196.357" y="44.112" transform="matrix(0.8135 0.5815 -0.5815 0.8135 65.9645 -105.2566)" fill="#BE1E2D" width="1.509" height="12.24"/>
	
		<rect x="190.59" y="42.566" transform="matrix(0.9021 0.4316 -0.4316 0.9021 39.7528 -77.8168)" fill="#BE1E2D" width="1.508" height="12.24"/>
</g>
<path fill="#414042" d="M185.396,124.612c-24.05,0-43.616-19.566-43.616-43.617s19.566-43.618,43.616-43.618
	c24.051,0,43.617,19.566,43.617,43.618S209.446,124.612,185.396,124.612z M185.396,44.919c-19.892,0-36.075,16.185-36.075,36.076
	s16.183,36.076,36.075,36.076c19.892,0,36.076-16.185,36.076-36.076S205.287,44.919,185.396,44.919z"/>
<path fill="#414042" d="M185.396,113.032c-16.881,0-30.616-13.735-30.616-30.617c0-16.881,13.735-30.616,30.616-30.616
	c16.882,0,30.617,13.735,30.617,30.616C216.013,99.297,202.277,113.032,185.396,113.032z M185.396,56.324
	c-14.388,0-26.091,11.704-26.091,26.091c0,14.387,11.704,26.093,26.091,26.093s26.093-11.706,26.093-26.093
	C211.488,68.027,199.783,56.324,185.396,56.324z"/>
<path fill="#414042" d="M137.733,104.039c-4.854-0.408-9.016-0.658-9.016-0.658c-5.154,0-9.331-4.176-9.331-9.33V74.28
	c0-5.153,4.177-9.331,9.331-9.331l7.789,0.349c1.797-3.684,4.124-7.059,6.88-10.034l-28.673-1.626c-6.451,0-11.68,5.23-11.68,11.68
	v36.39c0,6.45,5.229,11.68,11.68,11.68h30.269C142.145,110.642,139.7,107.496,137.733,104.039z"/>
<path fill="#414042" d="M231.893,104.039c4.853-0.408,9.016-0.658,9.016-0.658c5.153,0,9.331-4.176,9.331-9.33V74.28
	c0-5.153-4.178-9.331-9.331-9.331l-7.789,0.349c-1.797-3.684-4.124-7.059-6.88-10.034l28.673-1.626
	c6.452,0,11.681,5.23,11.681,11.68v36.39c0,6.45-5.229,11.68-11.681,11.68h-30.268C227.48,110.642,229.926,107.496,231.893,104.039z
	"/>
<ellipse transform="matrix(0.7072 -0.7071 0.7071 0.7072 -8.9837 167.2748)" fill="#414042" cx="197.444" cy="94.483" rx="13.955" ry="6.323"/>
<ellipse transform="matrix(0.7071 -0.7071 0.7071 0.7071 -5.2083 158.1935)" opacity="0.4" fill="#A7A9AC" cx="188.345" cy="85.384" rx="6.15" ry="2.787"/>
<path fill="#414042" d="M166.439,74.283l2.164,0.452c0.455-2.084,1.556-4.135,3.274-5.821c1.72-1.685,3.793-2.744,5.886-3.161
	l-0.411-2.171c-2.476,0.548-4.915,1.83-6.951,3.825C168.364,69.403,167.035,71.817,166.439,74.283z"/>
<path fill="#58595B" stroke="#BE1E2D" stroke-miterlimit="10" d="M136.456,41.262l-12.833-1.186c-0.284,0-0.516,0.231-0.516,0.515
	v8.52c0,0.284,0.231,0.514,0.516,0.514h12.833c0.283,0,0.514-0.23,0.514-0.514v-7.333C136.97,41.492,136.739,41.262,136.456,41.262z
	 M135.25,48.053c0,0.214-0.172,0.388-0.388,0.388h-9.647c-0.213,0-0.387-0.174-0.387-0.388v-6.404c0-0.213,0.174-0.387,0.387-0.387
	l9.647,0.89c0.215,0,0.388,0.174,0.388,0.387V48.053z"/>
<path fill="#BE1E2D" stroke="#414042" stroke-width="4" stroke-linecap="round" stroke-miterlimit="10" d="M145.31,48.685"/>
<ellipse transform="matrix(0.707 -0.7072 0.7072 0.707 -9.1869 167.8322)" fill="#FFFFFF" cx="197.966" cy="95.004" rx="6.151" ry="2.785"/>
<path fill="#414042" d="M228.688,45.2c-0.787-1.131-1.659-2.226-2.603-3.283c-8.641-9.672-23.646-16.088-40.689-16.088
	c-17.043,0-32.048,6.416-40.688,16.088c-0.944,1.058-1.816,2.152-2.603,3.283c-0.02,0.028-0.04,0.055-0.059,0.081h4.643
	c0.022-0.026,0.046-0.053,0.068-0.081c0.888-1.14,1.872-2.234,2.94-3.283c8.083-7.945,21.068-13.113,35.699-13.113
	c14.63,0,27.617,5.168,35.7,13.113c1.068,1.049,2.052,2.143,2.94,3.283c0.021,0.028,0.045,0.055,0.067,0.081h4.643
	C228.727,45.255,228.706,45.228,228.688,45.2z"/>
<path fill="#414042" d="M343.144,83.479h-74.392v1h74.392c5.582,0,10.124,4.542,10.124,10.124v62.77
	c0,5.583-4.542,10.124-10.124,10.124H23.904c-5.583,0-10.124-4.542-10.124-10.124v-62.77c0-5.583,4.542-10.124,10.124-10.124h76.514
	v-1H23.904c-6.134,0-11.124,4.99-11.124,11.124v62.77c0,6.134,4.99,11.124,11.124,11.124h319.239c6.134,0,11.124-4.99,11.124-11.124
	v-62.77C354.268,88.469,349.277,83.479,343.144,83.479z"/>
<line fill="none" stroke="#414042" stroke-width="2" stroke-linecap="round" stroke-miterlimit="10" x1="217.578" y1="125.988" x2="224.097" y2="119.469"/>
</svg>
